<?xml version="1.0" encoding="UTF-8"?><svg id="b" xmlns="http://www.w3.org/2000/svg" viewBox="0 0 33.6386 22.8594"><g id="c"><path d="M11.4297,22.8594C5.1274,22.8594,0,17.7315,0,11.4297S5.1274,0,11.4297,0s11.4292,5.128,11.4292,11.4297c0,.3594-.2911.6504-.65.6504-.3588,0-.6499-.291-.6499-.6504,0-5.5849-4.5439-10.1289-10.1293-10.1289S1.2998,5.8448,1.2998,11.4297s4.5444,10.1289,10.1299,10.1289c1.7817,0,3.5336-.4687,5.0664-1.3554.311-.1797.7085-.0743.8881.2373.1797.3105.0738.708-.2368.8877-1.7309,1.0019-3.708,1.5312-5.7177,1.5312Z" style="fill:#c7955a;"/><path d="M22.2089,22.8594c-6.3022,0-11.4292-5.1279-11.4292-11.4297,0-.3594.2911-.6504.65-.6504.3588,0,.6499.291.6499.6504,0,5.585,4.5439,10.1289,10.1293,10.1289s10.1299-4.5439,10.1299-10.1289S27.7944,1.3008,22.2089,1.3008c-1.7822,0-3.5341.4678-5.0654,1.3545-.311.1787-.7085.0742-.8882-.2373-.1797-.3105-.0737-.708.2369-.8877,1.729-1.001,3.706-1.5303,5.7167-1.5303,6.3023,0,11.4297,5.128,11.4297,11.4297s-5.1274,11.4297-11.4297,11.4297Z" style="fill:#fff;"/></g></svg>