<svg id="b" xmlns="http://www.w3.org/2000/svg" viewBox="0 0 831.76619 154.53375"><g id="c"><path d="M77.26688,154.53375C34.66217,154.53375,0,119.8682,0,77.26688S34.66217,0,77.26688,0s77.2635,34.66622,77.2635,77.26688c0,2.42961-1.96789,4.39682-4.39412,4.39682-2.42555,0-4.39344-1.96721-4.39344-4.39682,0-37.75495-30.7176-68.47323-68.47593-68.47323S8.78689,39.51192,8.78689,77.26688s30.72098,68.47323,68.47999,68.47323c12.04462,0,23.88779-3.1685,34.2498-9.16275,2.10242-1.21481,4.78959-.50228,6.00372,1.60419,1.21481,2.09904.4989,4.78621-1.60081,6.00102-11.7012,6.77303-25.06676,10.35119-38.6527,10.35119Z" style="fill:#c7955a;"/><path d="M150.13625,154.53375c-42.60403,0-77.2635-34.66555-77.2635-77.26688,0-2.42961,1.96789-4.39682,4.39412-4.39682,2.42555,0,4.39344,1.96721,4.39344,4.39682,0,37.75563,30.7176,68.47323,68.47593,68.47323s68.47999-30.7176,68.47999-68.47323S187.89526,8.79365,150.13625,8.79365c-12.048,0-23.89117,3.16241-34.24304,9.15667-2.10242,1.20804-4.78959.50161-6.0044-1.60419-1.21481-2.09904-.49823-4.78621,1.60149-6.00102C123.17867,3.57817,136.54355,0,150.13625,0c42.60471,0,77.26688,34.66622,77.26688,77.26688s-34.66217,77.26688-77.26688,77.26688Z" style="fill:#fff;"/><path d="M259.39545,127.10517l34.27267-100.32667h26.93333l35.148,100.32667h-22.826l-16.09267-48.42015c-1.93022-6.22459-3.89785-13.06267-5.89541-20.49926-1.99756-7.42163-4.09237-15.53156-6.29193-24.32978h4.51133c-2.15467,8.84311-4.16719,16.99793-6.03007,24.46444-1.86289,7.48148-3.71081,14.27467-5.55126,20.36459l-15.48667,48.42015h-22.69133ZM280.80745,103.80784v-16.08519h53.53v16.08519h-53.53Z" style="fill:#fff;"/><path d="M392.26656,127.10517V26.7785h20.53667v27.39719l-.33667,25.58667.33667,10.04015v37.30267h-20.53667ZM407.41656,104.42132v-18.73363c2.06489-3.71081,4.08489-7.1523,6.06-10.29452,1.97511-3.14222,4.15222-6.29941,6.53133-9.45659,2.37911-3.17215,5.09489-6.61363,8.14733-10.33941l24.57667-28.81867h25.11533l-42.35267,49.01867-1.68333-.61348-26.39467,29.23763ZM454.61723,127.10517l-29.76133-45.248,12.99533-15.352,41.07333,60.6h-24.30733Z" style="fill:#fff;"/><path d="M509.79315,127.10517l34.27267-100.32667h26.93333l35.148,100.32667h-22.826l-16.09267-48.42015c-1.93022-6.22459-3.89785-13.06267-5.89541-20.49926-1.99756-7.42163-4.09237-15.53156-6.29193-24.32978h4.51133c-2.15467,8.84311-4.16719,16.99793-6.03007,24.46444-1.86289,7.48148-3.71081,14.27467-5.55126,20.36459l-15.48667,48.42015h-22.69133ZM531.20515,103.80784v-16.08519h53.53v16.08519h-53.53Z" style="fill:#c7955a;"/><path d="M681.3136,128.45184c-9.38178,0-17.60393-2.07985-24.68141-6.22459-7.06252-4.1597-12.58385-10.08504-16.564-17.776-3.96519-7.70593-5.95526-16.81837-5.95526-27.38222,0-10.84815,2.06489-20.14015,6.19467-27.83111,4.12978-7.70593,9.71844-13.58637,16.766-17.68622,7.04756-4.06993,14.97044-6.11985,23.76867-6.11985,5.656,0,10.91548.82296,15.78593,2.45393,4.87044,1.64593,9.20222,3.96519,13.00281,6.97274,3.78563,3.00756,6.88296,6.56874,9.292,10.66859,2.39407,4.11481,3.9577,8.64859,4.67593,13.64622h-20.87333c-.71822-2.424-1.71326-4.59363-3.00007-6.50889-1.27185-1.9003-2.828-3.53126-4.63852-4.87793-1.82548-1.34667-3.89785-2.36415-6.23207-3.06741-2.33422-.6883-4.89289-1.04741-7.676-1.04741-5.16222,0-9.71844,1.30178-13.66867,3.87541-3.95022,2.58859-7.02511,6.3443-9.22467,11.28207-2.19956,4.93778-3.29933,10.95289-3.29933,18.04533s1.08481,13.12252,3.26193,18.07526c2.17711,4.9677,5.24452,8.75333,9.19474,11.35689,3.95022,2.60356,8.61867,3.89037,14.00533,3.89037,4.848,0,9.00022-.86785,12.45667-2.61852,3.45644-1.75067,6.11237-4.24948,7.97526-7.51141,1.86289-3.24696,2.79807-7.04756,2.79807-11.41674l4.30933.61348h-26.12533v-15.62133h41.74667v12.524c0,8.79822-1.86289,16.35452-5.58867,22.65393-3.72578,6.31437-8.84311,11.16237-15.352,14.544-6.50889,3.39659-13.96044,5.08741-22.35467,5.08741Z" style="fill:#c7955a;"/><path d="M764.50019,127.10517V26.7785h67.13133v17.04281h-46.59467v24.24h43.09333v16.75852h-43.09333v25.25748h46.72933v17.02785h-67.266Z" style="fill:#c7955a;"/></g></svg>