<?xml version="1.0" encoding="UTF-8"?><svg id="b" xmlns="http://www.w3.org/2000/svg" viewBox="0 0 341.11889 269.20114"><g id="c"><path d="M134.12476,154.53375c-42.60471,0-77.26688-34.66555-77.26688-77.26688S91.52005,0,134.12476,0s77.2635,34.66622,77.2635,77.26688c0,2.42961-1.96789,4.39682-4.39412,4.39682-2.42555,0-4.39344-1.96721-4.39344-4.39682,0-37.75495-30.7176-68.47323-68.47593-68.47323s-68.47999,30.71828-68.47999,68.47323,30.72098,68.47323,68.47999,68.47323c12.04462,0,23.88779-3.1685,34.2498-9.16275,2.10242-1.21481,4.78959-.50228,6.00372,1.60419,1.21481,2.09904.4989,4.78621-1.60081,6.00102-11.7012,6.77303-25.06676,10.35119-38.6527,10.35119Z" style="fill:#c7955a;"/><path d="M206.99413,154.53375c-42.60403,0-77.2635-34.66555-77.2635-77.26688,0-2.42961,1.96789-4.39682,4.39412-4.39682,2.42555,0,4.39344,1.96721,4.39344,4.39682,0,37.75563,30.7176,68.47323,68.47593,68.47323s68.47999-30.7176,68.47999-68.47323S244.75314,8.79365,206.99413,8.79365c-12.048,0-23.89117,3.16241-34.24304,9.15667-2.10242,1.20804-4.78959.50161-6.0044-1.60419-1.21481-2.09904-.49823-4.78621,1.60149-6.00102,11.68836-6.76694,25.05324-10.34511,38.64594-10.34511,42.60471,0,77.26688,34.66622,77.26688,77.26688s-34.66217,77.26688-77.26688,77.26688Z" style="fill:#fff;"/><path d="M23.00385,269.20114c-4.34701,0-8.25638-.99297-11.73545-2.97892-3.47172-1.98594-6.22262-4.86188-8.23799-8.64253-2.02272-3.76594-3.0304-8.32625-3.0304-13.66623,0-5.36205,1.00768-9.93707,3.0304-13.71772,2.01536-3.788,4.76626-6.6713,8.23799-8.65724,3.47908-1.98594,7.38845-2.97892,11.73545-2.97892,4.36908,0,8.2858.99297,11.75017,2.97892s6.20791,4.86924,8.22328,8.65724c2.02272,3.78065,3.0304,8.35567,3.0304,13.71772,0,5.33998-1.00768,9.9003-3.0304,13.66623-2.01536,3.78065-4.75891,6.65659-8.22328,8.64253s-7.38109,2.97892-11.75017,2.97892ZM23.00385,260.22762c2.55966,0,4.79201-.61785,6.7044-1.86826,1.90503-1.24305,3.39081-3.08925,4.44998-5.52386,1.05917-2.44197,1.58875-5.41353,1.58875-8.92203,0-3.55263-.52958-6.54626-1.58875-8.98823-1.05917-2.43462-2.54495-4.28081-4.44998-5.52386-1.91239-1.25041-4.14474-1.87561-6.7044-1.87561-2.53759,0-4.76626.63256-6.68601,1.89032-1.91975,1.25776-3.4092,3.10396-4.46837,5.54593-1.05917,2.43462-1.58875,5.42089-1.58875,8.95146,0,3.5085.52958,6.48006,1.58875,8.89997,1.05917,2.43462,2.54863,4.27346,4.46837,5.53122s4.14842,1.88297,6.68601,1.88297Z" style="fill:#fff;"/><path d="M59.75851,268.53916l16.84742-49.3176h13.23962l17.27771,49.3176h-11.22058l-7.91067-23.8019c-.94884-3.05982-1.91607-6.42122-2.89801-10.07682-.98194-3.64825-2.01169-7.63485-3.09292-11.95979h2.21764c-1.05917,4.34701-2.04846,8.35567-2.9642,12.02599-.91574,3.67767-1.82413,7.017-2.72883,10.01063l-7.61278,23.8019h-11.15438ZM70.28401,257.08689v-7.907h26.31375v7.907h-26.31375Z" style="fill:#fff;"/><path d="M125.07398,268.53916v-49.3176h10.09521v13.46764l-.1655,12.57764.1655,4.93544v18.33688h-10.09521ZM132.52127,257.38846v-9.20889c1.01504-1.82413,2.00801-3.51586,2.97892-5.06048.97091-1.54462,2.04111-3.0966,3.21061-4.64858,1.1695-1.55933,2.5045-3.25106,4.00499-5.08254l12.08116-14.1664h12.34595l-20.81931,24.09611-.82748-.30157-12.97483,14.37235ZM155.72371,268.53916l-14.62978-22.24257,6.38812-7.54659,20.19043,29.78915h-11.94876Z" style="fill:#fff;"/><path d="M182.84655,268.53916l16.84742-49.3176h13.23962l17.27771,49.3176h-11.22058l-7.91067-23.8019c-.94884-3.05982-1.91607-6.42122-2.89801-10.07682-.98194-3.64825-2.01169-7.63485-3.09292-11.95979h2.21764c-1.05917,4.34701-2.04846,8.35567-2.9642,12.02599-.91574,3.67767-1.82413,7.017-2.72883,10.01063l-7.61278,23.8019h-11.15438ZM193.37205,257.08689v-7.907h26.31375v7.907h-26.31375Z" style="fill:#c7955a;"/><path d="M267.16088,269.20114c-4.6118,0-8.65356-1.02239-12.13264-3.05982-3.47172-2.04479-6.18585-4.9575-8.14237-8.73815-1.94917-3.788-2.92743-8.26741-2.92743-13.46028,0-5.33263,1.01504-9.9003,3.04511-13.68094,2.03008-3.788,4.7773-6.67865,8.24167-8.69402,3.46437-2.00065,7.35902-3.00834,11.68397-3.00834,2.78032,0,5.36573.40454,7.75989,1.20628,2.39417.80909,4.52354,1.94917,6.3918,3.42759,1.8609,1.47842,3.38346,3.229,4.56767,5.24436,1.17686,2.02272,1.94549,4.25139,2.29855,6.70808h-10.26071c-.35306-1.19157-.84219-2.25809-1.47475-3.19958-.6252-.93413-1.39016-1.73586-2.28016-2.39784-.89735-.66198-1.91607-1.16214-3.0635-1.50785-1.14743-.33835-2.4052-.51487-3.77329-.51487-2.53759,0-4.7773.63992-6.71911,1.90503-1.94181,1.27247-3.45334,3.11867-4.53457,5.54593-1.08124,2.42726-1.62185,5.38411-1.62185,8.87055s.53326,6.45064,1.60347,8.88526c1.0702,2.44197,2.57805,4.30288,4.51986,5.58271,1.94181,1.27983,4.23668,1.91239,6.8846,1.91239,2.38313,0,4.42424-.42661,6.12333-1.28719,1.69908-.86058,3.00466-2.08892,3.9204-3.69238.91574-1.59611,1.37545-3.46437,1.37545-5.61213l2.11834.30157h-12.84243v-7.67898h20.52142v6.15642c0,4.32494-.91574,8.03939-2.74722,11.13599-1.83148,3.10396-4.34701,5.48709-7.54659,7.1494-3.19958,1.66966-6.86254,2.50082-10.98889,2.50082Z" style="fill:#c7955a;"/><path d="M308.05293,268.53916v-49.3176h32.99976v8.37774h-22.90455v11.91566h21.1834v8.23799h-21.1834v12.41582h22.97075v8.37038h-33.06596Z" style="fill:#c7955a;"/></g></svg>